<svg width="512" height="512" viewBox="0 0 512 512" fill="none" xmlns="http://www.w3.org/2000/svg">
  <path d="M511.37 255.886C511.37 396.994 396.979 511.386 255.87 511.386C114.761 511.386 0.369995 396.994 0.369995 255.886C0.369995 114.777 114.761 0.385651 255.87 0.385651C396.979 0.385651 511.37 114.777 511.37 255.886ZM25.92 255.886C25.92 382.884 128.872 485.836 255.87 485.836C382.868 485.836 485.82 382.884 485.82 255.886C485.82 128.888 382.868 25.9357 255.87 25.9357C128.872 25.9357 25.92 128.888 25.92 255.886Z" fill="url(#paint0_linear_5_60)"/>
  <path d="M209.027 358.924C190.719 358.924 172.625 354.989 155.971 347.386C139.317 339.783 124.492 328.689 112.499 314.856C100.507 301.022 91.6283 284.773 86.4642 267.209C81.3002 249.645 79.9715 231.176 82.5684 213.053C85.1653 194.931 91.627 177.578 101.516 162.171C111.405 146.764 124.489 133.662 139.884 123.753C155.278 113.844 172.622 107.36 190.742 104.74C208.861 102.119 227.331 103.424 244.902 108.565L237.727 133.087C223.671 128.974 208.894 127.93 194.399 130.027C179.903 132.123 166.028 137.31 153.712 145.237C141.397 153.164 130.929 163.646 123.018 175.972C115.107 188.297 109.938 202.18 107.86 216.678C105.783 231.176 106.845 245.951 110.977 260.002C115.108 274.054 122.211 287.053 131.805 298.119C141.399 309.186 153.259 318.061 166.582 324.144C179.906 330.226 194.381 333.374 209.027 333.374V333.377H255.87V252.139C255.87 232.805 262.765 214.106 275.316 199.4C287.867 184.695 305.252 174.947 324.345 171.91C343.438 168.873 362.989 172.744 379.484 182.829C395.979 192.914 408.336 208.551 414.335 226.93L390.047 234.858C385.935 222.259 377.464 211.54 366.157 204.627C354.849 197.714 341.447 195.06 328.359 197.142C315.27 199.224 303.353 205.906 294.75 215.987C286.146 226.067 281.419 238.886 281.419 252.139H281.424V333.377H398.764V358.924H281.424V433.157H255.87V358.924H209.027Z" fill="url(#paint0_linear_5_60)"/>
  <defs><linearGradient id="paint0_linear_5_60" x1="363.61" y1="0.385642" x2="137.038" y2="511.386" gradientUnits="userSpaceOnUse"><stop stop-color="#00C2FF"/><stop offset="1" stop-color="#F151FF"/></linearGradient></defs>
</svg>
